<svg width="169" height="48" viewBox="0 0 169 48" fill="none" xmlns="http://www.w3.org/2000/svg">
<g clip-path="url(#clip0_663_7405)">
<path d="M53.3704 29.3638V16.1593H47.8379V14.1406H62.779V16.1593H57.2465V29.3638H53.3676H53.3704Z" fill="white"/>
<path d="M66.7962 29.3638C65.3511 29.3638 64.7539 28.8162 64.7539 27.4704V16.0341C64.7539 14.6883 65.3511 14.1406 66.7962 14.1406H78.6387V16.1593H69.3202C68.861 16.1593 68.6328 16.3691 68.6328 16.7914V20.3453H78.157V22.2387H68.6328V26.7159C68.6328 27.1354 68.861 27.3481 69.3202 27.3481H78.6387V29.3667H66.7962V29.3638Z" fill="white"/>
<path d="M95.2579 29.1932C85.3422 30.539 80.5449 28.3514 80.5449 21.771C80.5449 18.4706 81.7168 16.2217 84.0802 15.0653C86.4436 13.9088 90.162 13.635 95.2353 14.2467V16.2858C86.6521 15.3595 84.3563 16.8946 84.3563 21.7739C84.3563 26.6531 86.9281 28.1649 95.2579 27.157V29.1961V29.1932Z" fill="white"/>
<path d="M97.666 29.3609V14.1406H101.567V20.2171H110.244V14.1406H114.145V29.3609H110.244V22.2766H101.567V29.3609H97.666Z" fill="white"/>
<path d="M117.588 29.3609V14.1406H119.861C120.985 14.1406 121.858 14.5193 122.501 15.2563L131.613 25.6644V14.1435H134.025V29.3638H131.799C130.675 29.3638 129.802 28.9851 129.182 28.2482L120.002 17.6945V29.3638H117.591L117.588 29.3609Z" fill="white"/>
<path d="M135.535 29.3609L142.673 21.5192L136.155 14.1406H140.676L145.589 19.7539L150.364 14.1406H153.507L147.104 21.3735L154.197 29.3638H149.606L144.234 23.2262L138.772 29.3638H135.535V29.3609Z" fill="white"/>
<path d="M159.589 29.3638V16.1593H154.057V14.1406H168.998V16.1593H163.465V29.3638H159.586H159.589Z" fill="white"/>
<path d="M49.6295 2.27073C49.4999 2.20373 49.3703 2.10469 49.2745 1.97069C49.2097 1.83669 49.1787 1.67065 49.1787 1.53666C49.4041 1.46966 49.6295 1.50461 49.8548 1.5687C50.0802 1.63278 50.2745 1.80174 50.4041 1.96778C50.3393 2.10177 50.2097 2.20081 50.0492 2.26781C49.9196 2.33481 49.759 2.33481 49.5985 2.26781H49.6295V2.27073ZM49.9844 1.26866C49.6604 1.13466 49.3083 1.13466 48.9844 1.26866C49.0802 1.00067 49.2435 0.802585 49.4689 0.700631C49.6942 0.598677 49.9534 0.566634 50.1788 0.668588C50.4041 0.767629 50.5985 0.936582 50.6943 1.16962C50.79 1.40266 50.8238 1.67065 50.7253 1.90369C50.5309 1.6357 50.2745 1.40266 49.9506 1.26866H49.9816H49.9844ZM51.0154 1.03562C50.9196 0.834628 50.79 0.700631 50.6295 0.569547C50.4689 0.438463 50.2745 0.368552 50.0802 0.336509C49.8858 0.304466 49.6942 0.336509 49.4999 0.368552C49.3055 0.43555 49.1449 0.534591 48.9844 0.703544C49.0802 0.470506 49.2745 0.304466 49.4999 0.202512C49.7252 0.100558 49.9506 0.0685151 50.2097 0.103471C50.4351 0.170469 50.6605 0.304466 50.8238 0.470506C50.9844 0.671501 51.0492 0.904539 51.083 1.16962C51.083 1.13758 51.083 1.10262 51.052 1.07058L51.021 1.03854L51.0154 1.03562Z" fill="white"/>
<path fill-rule="evenodd" clip-rule="evenodd" d="M65.4696 9.67597C65.1795 9.67597 64.7935 9.60898 64.5344 9.24194C64.2104 8.80791 64.1794 8.0418 64.4696 7.07469L65.34 4.17337C64.7597 4.80839 64.0161 5.14047 63.6301 5.07348C62.7907 4.93948 62.9203 4.03937 63.371 3.64029C63.2104 3.47425 63.016 3.34026 62.8217 3.34026C62.2076 3.34026 61.6273 4.20832 61.016 5.10843C60.985 5.17543 60.9202 5.24243 60.8864 5.30943L60.8216 5.47547L59.5963 9.64685H57.9174L59.9484 2.77514C59.0132 3.20917 58.2385 3.80924 57.6582 4.37727V4.74431C57.6272 5.0123 57.5624 5.31234 57.5286 5.57742C56.9793 8.28066 55.0779 9.64685 53.4948 9.64685C53.2046 9.64685 52.9145 9.57985 52.6553 9.48081C52.075 9.24777 51.6863 8.88073 51.4609 8.34766C51.2666 7.84663 51.2356 7.24655 51.3313 6.57948V6.48044C50.1708 7.51455 49.6524 8.64769 49.2665 9.64976H47.5566L48.6862 3.54416C48.3961 4.0452 47.9764 4.37727 47.5566 4.67731V4.57827C48.2327 3.9112 48.6524 3.20917 48.8806 2.47801L50.3961 3.21208L49.5905 7.71554C50.2046 7.01643 50.7511 6.5824 51.4299 6.08136C51.8159 4.81422 52.7201 3.64612 53.8497 3.01109C54.43 2.6761 55.1089 2.47801 55.6892 2.47801C56.2695 2.47801 57.1737 2.64405 57.5286 3.71312C58.3681 3.14509 59.1089 2.84505 60.0132 2.47801L61.4639 3.14509L60.9146 5.04726C61.2695 4.41223 61.754 3.67816 62.8189 2.71105C63.0442 2.57706 63.2696 2.51006 63.4639 2.51006C63.9146 2.51006 64.2696 2.90914 64.5287 3.7102C64.9147 3.7772 65.3344 3.7102 65.7231 2.84214L66.4978 0.0078125L67.9485 0.607885L67.3034 3.11013H68.433L68.1429 3.67816H67.1739L65.8837 8.11462C65.7541 8.54865 65.7879 8.81374 65.9147 9.01473C65.9795 9.11377 66.109 9.21572 66.3344 9.21572C66.9485 9.21572 67.9147 8.41466 68.4302 7.51455C68.4302 7.44755 68.4302 7.34851 68.4612 7.28151C68.6218 6.3814 68.9767 5.0793 69.7852 4.0452C70.526 3.07809 71.4951 2.57706 72.6556 2.54501H76.0754L75.9796 2.88001C75.6557 3.98111 75.3993 4.84918 75.174 5.68229V5.81628H75.143C74.9176 6.61735 74.6923 7.35142 74.4669 8.18453C74.3712 8.58361 74.3711 8.8516 74.4979 9.01764C74.5627 9.11668 74.6923 9.21864 74.9176 9.21864C75.5627 9.21864 76.6585 8.31853 77.0782 7.41842H77.2388C76.4979 8.8516 75.0782 9.68763 74.1092 9.68763C73.1401 9.68763 73.4641 9.58859 73.2697 9.38759C73.0444 9.15455 72.9458 8.81956 72.9458 8.38553V7.85245L72.6218 8.28649C71.9767 9.1866 71.0415 9.71967 70.1373 9.71967C69.588 9.71967 69.1373 9.51867 68.8133 9.15164C68.5542 8.81665 68.4274 8.38553 68.4274 7.84954C68.1034 8.31562 67.7513 8.71761 67.2978 9.01764C66.6837 9.45168 66.0386 9.71676 65.4921 9.71676L65.4612 9.68471L65.4696 9.67597ZM73.0162 2.80427C72.081 2.80427 70.9204 4.20541 70.4021 5.97358C70.0162 7.27568 70.0162 8.27483 70.3711 8.74382C70.5007 8.94482 70.695 9.04386 70.9514 9.04386C71.4669 9.04386 72.1768 8.51079 73.0162 7.47668L74.0472 3.64029V3.57329C73.7233 2.93826 73.3064 2.80718 73.0162 2.80718V2.80427ZM53.9849 3.60534C54.3089 3.20626 54.63 3.00526 54.9539 3.00526C55.63 3.00526 56.0497 3.80633 56.1483 4.57244C56.2131 4.93948 56.1793 5.30651 56.1483 5.67355C56.1483 5.67355 56.1483 5.70559 56.1173 5.87454V5.94154V6.00854C55.7624 7.44172 55.0525 9.01182 54.0525 9.01182C53.0525 9.01182 53.7286 8.97977 53.6018 8.87782C53.2779 8.67682 53.0863 8.34475 52.9877 7.84371C52.7286 6.47462 53.4722 4.37436 54.0835 3.57329L53.9877 3.60534H53.9849Z" fill="white"/>
<path d="M41.643 8.13643C38.8147 6.18183 31.7414 1.85897 21.7919 1.59098C10.6903 1.29385 2.76343 6.22843 0 8.13643C0.0197186 13.2225 0.676068 31.9413 14.0256 43.3164C16.3552 45.3002 18.7947 46.8266 21.2173 48.0005C24.0145 46.7304 26.9948 44.9244 29.8118 42.3289C42.5895 30.5605 41.8627 11.9116 41.643 8.13643Z" fill="url(#paint0_linear_663_7405)"/>
<path d="M20.8644 8.40234L9.20508 15.3935V29.3758L20.8644 36.5155L32.5238 29.3758V15.3935L20.8644 8.40234Z" fill="white"/>
<path d="M20.7238 33.4538L11.6758 27.9133V17.0625L20.7238 22.5447V33.4538Z" fill="#1D74BA"/>
<path d="M20.8649 33.7097L11.5352 27.9973V16.8086L20.8649 22.4627V33.7097ZM11.8169 27.8313L20.5832 33.1999V22.6287L11.8169 17.3184V27.8313Z" fill="#1D74BA"/>
<path d="M11.8145 16.8097L20.8653 11.3828L29.9134 16.8097L20.8653 22.2948L11.8145 16.8097Z" fill="#69BD47"/>
<path d="M20.8649 22.4608L11.5352 16.8068L20.8649 11.2109L30.1918 16.8068L20.8649 22.4608ZM12.0929 16.8068L20.8649 22.1229L29.634 16.8068L20.8649 11.5488L12.0929 16.8068Z" fill="#69BD47"/>
<path d="M30.0539 27.9094L21.0059 33.4499V22.5408L30.0539 17.0586V27.9094Z" fill="#01A69E"/>
<path d="M20.8652 33.7058V22.4588L30.195 16.8047V27.9934L20.8652 33.7058ZM21.1469 22.6248V33.196L29.9133 27.8274V17.3145L21.1469 22.6248Z" fill="#01A69E"/>
</g>
<defs>
<linearGradient id="paint0_linear_663_7405" x1="20.8651" y1="48.0005" x2="20.8651" y2="1.57641" gradientUnits="userSpaceOnUse">
<stop stop-color="#08AFEF"/>
<stop offset="1" stop-color="#2671A8"/>
</linearGradient>
<clipPath id="clip0_663_7405">
<rect width="169" height="48" fill="white"/>
</clipPath>
</defs>
</svg>
